{"asset":{"version":"2.0","generator":"Blockbench 4.12.1 glTF exporter"},"scenes":[{"nodes":[1],"name":"blockbench_export"}],"scene":0,"nodes":[{"rotation":[-0.6915130557822694,0,0,0.7223639620597556],"translation":[0,0,-0.125],"name":"sphere","mesh":0},{"children":[0]}],"bufferViews":[{"buffer":0,"byteOffset":0,"byteLength":13776,"target":34962,"byteStride":12},{"buffer":0,"byteOffset":13776,"byteLength":13776,"target":34962,"byteStride":12},{"buffer":0,"byteOffset":27552,"byteLength":9184,"target":34962,"byteStride":8},{"buffer":0,"byteOffset":36736,"byteLength":3264,"target":34963}],"buffers":[{"byteLength":40000,"uri":"data:application/octet-stream;base64,"}],"accessors":[{"bufferView":0,"componentType":5126,"count":1148,"max":[0.694149374961853,0.6715060472488403,0.8226315379142761],"min":[-0.6840823888778687,-1.2501733303070068,-0.643784761428833],"type":"VEC3"},{"bufferView":1,"componentType":5126,"count":1148,"max":[1,0.9995768666267395,0.9967437386512756],"min":[-1,-0.9967437386512756,-0.9990482330322266],"type":"VEC3"},{"bufferView":2,"componentType":5126,"count":1148,"max":[0.6168732047080994,0.6484375],"min":[0,0],"type":"VEC2"},{"bufferView":3,"componentType":5123,"count":1632,"max":[1147],"min":[0],"type":"SCALAR"}],"materials":[{"pbrMetallicRoughness":{"metallicFactor":0,"roughnessFactor":1,"baseColorTexture":{"index":0}},"alphaMode":"MASK","alphaCutoff":0.05,"doubleSided":true}],"textures":[{"sampler":0,"source":0,"name":"texture"}],"samplers":[{"magFilter":9728,"minFilter":9728,"wrapS":33071,"wrapT":33071}],"images":[{"mimeType":"image/png","uri":"data:image/png;base64,"}],"meshes":[{"primitives":[{"mode":4,"attributes":{"POSITION":0,"NORMAL":1,"TEXCOORD_0":2},"indices":3,"material":0}]}]}