{"asset":{"version":"2.0","generator":"Blockbench 4.12.1 glTF exporter"},"scenes":[{"nodes":[1],"name":"blockbench_export"}],"scene":0,"nodes":[{"rotation":[-0.6915130557822694,0,0,0.7223639620597556],"translation":[0,0,-0.125],"name":"sphere","mesh":0},{"children":[0]}],"bufferViews":[{"buffer":0,"byteOffset":0,"byteLength":15312,"target":34962,"byteStride":12},{"buffer":0,"byteOffset":15312,"byteLength":15312,"target":34962,"byteStride":12},{"buffer":0,"byteOffset":30624,"byteLength":10208,"target":34962,"byteStride":8},{"buffer":0,"byteOffset":40832,"byteLength":3648,"target":34963}],"buffers":[{"byteLength":44480,"uri":"data:application/octet-stream;base64,"}],"accessors":[{"bufferView":0,"componentType":5126,"count":1276,"max":[0.7625679969787598,0.8588275909423828,0.9625222086906433],"min":[-0.7436186671257019,-1.2501733303070068,-1.7684683799743652],"type":"VEC3"},{"bufferView":1,"componentType":5126,"count":1276,"max":[1,0.9999443888664246,0.9999882578849792],"min":[-1,-0.9999433159828186,-0.9990482330322266],"type":"VEC3"},{"bufferView":2,"componentType":5126,"count":1276,"max":[0.6168732047080994,0.6484375],"min":[0,0],"type":"VEC2"},{"bufferView":3,"componentType":5123,"count":1824,"max":[1275],"min":[0],"type":"SCALAR"}],"materials":[{"pbrMetallicRoughness":{"metallicFactor":0,"roughnessFactor":1,"baseColorTexture":{"index":0}},"alphaMode":"MASK","alphaCutoff":0.05,"doubleSided":true}],"textures":[{"sampler":0,"source":0,"name":"texture"}],"samplers":[{"magFilter":9728,"minFilter":9728,"wrapS":33071,"wrapT":33071}],"images":[{"mimeType":"image/png","uri":"data:image/png;base64,"}],"meshes":[{"primitives":[{"mode":4,"attributes":{"POSITION":0,"NORMAL":1,"TEXCOORD_0":2},"indices":3,"material":0}]}]}