{"asset":{"version":"2.0","generator":"Blockbench 4.12.1 glTF exporter"},"scenes":[{"nodes":[2],"name":"blockbench_export"}],"scene":0,"nodes":[{"rotation":[-0.6915130557822694,0,0,0.7223639620597556],"translation":[0,0.9375,0.0625],"name":"P.A.U.L","mesh":0},{"rotation":[-0.6915130557822694,0,0,0.7223639620597556],"translation":[0,1.6875,-0.9375],"name":"P.A.U.L_selection","mesh":1},{"children":[0,1]}],"bufferViews":[{"buffer":0,"byteOffset":0,"byteLength":18048,"target":34962,"byteStride":12},{"buffer":0,"byteOffset":18048,"byteLength":18048,"target":34962,"byteStride":12},{"buffer":0,"byteOffset":36096,"byteLength":12032,"target":34962,"byteStride":8},{"buffer":0,"byteOffset":48128,"byteLength":4284,"target":34963},{"buffer":0,"byteOffset":52412,"byteLength":1152,"target":34962,"byteStride":12},{"buffer":0,"byteOffset":53564,"byteLength":1152,"target":34962,"byteStride":12},{"buffer":0,"byteOffset":54716,"byteLength":768,"target":34962,"byteStride":8},{"buffer":0,"byteOffset":55484,"byteLength":288,"target":34963}],"buffers":[{"byteLength":55772,"uri":"data:application/octet-stream;base64,"}],"accessors":[{"bufferView":0,"componentType":5126,"count":1504,"max":[0.8155604004859924,4.0234551429748535,1.381869912147522],"min":[-0.8155604004859924,-1.117113709449768,-0.17102015018463135],"type":"VEC3"},{"bufferView":1,"componentType":5126,"count":1504,"max":[1,0.9995768666267395,0.9999110698699951],"min":[-1,-0.9990482330322266,-0.9998464584350586],"type":"VEC3"},{"bufferView":2,"componentType":5126,"count":1504,"max":[0.546875,0.5546875],"min":[0,0],"type":"VEC2"},{"bufferView":3,"componentType":5123,"count":2142,"max":[1503],"min":[0],"type":"SCALAR"},{"bufferView":4,"componentType":5126,"count":96,"max":[1.1490485668182373,0.13773944973945618,-0.30868950486183167],"min":[-1.1490485668182373,-2.158170223236084,-1.6951215267181396],"type":"VEC3"},{"bufferView":5,"componentType":5126,"count":96,"max":[0.839570164680481,0.8387710452079773,0.7042171955108643],"min":[-0.839570164680481,-0.8387710452079773,-0.79482501745224],"type":"VEC3"},{"bufferView":6,"componentType":5126,"count":96,"max":[0.40234375,0.4055532217025757],"min":[0.0010139277437701821,0],"type":"VEC2"},{"bufferView":7,"componentType":5123,"count":144,"max":[95],"min":[0],"type":"SCALAR"}],"materials":[{"pbrMetallicRoughness":{"metallicFactor":0,"roughnessFactor":1,"baseColorTexture":{"index":0}},"alphaMode":"MASK","alphaCutoff":0.05,"doubleSided":true}],"textures":[{"sampler":0,"source":0,"name":"texture"}],"samplers":[{"magFilter":9728,"minFilter":9728,"wrapS":33071,"wrapT":33071}],"images":[{"mimeType":"image/png","uri":"data:image/png;base64,"}],"meshes":[{"primitives":[{"mode":4,"attributes":{"POSITION":0,"NORMAL":1,"TEXCOORD_0":2},"indices":3,"material":0}]},{"primitives":[{"mode":4,"attributes":{"POSITION":4,"NORMAL":5,"TEXCOORD_0":6},"indices":7,"material":0}]}]}