{"asset":{"version":"2.0","generator":"Blockbench 4.11.2 glTF exporter"},"scenes":[{"nodes":[1],"name":"blockbench_export"}],"scene":0,"nodes":[{"translation":[0,1,0],"name":"sphere","mesh":0},{"children":[0]}],"bufferViews":[{"buffer":0,"byteOffset":0,"byteLength":44760,"target":34962,"byteStride":12},{"buffer":0,"byteOffset":44760,"byteLength":44760,"target":34962,"byteStride":12},{"buffer":0,"byteOffset":89520,"byteLength":29840,"target":34962,"byteStride":8},{"buffer":0,"byteOffset":119360,"byteLength":10164,"target":34963}],"buffers":[{"byteLength":129524,"uri":"data:application/octet-stream;base64,"}],"accessors":[{"bufferView":0,"componentType":5126,"count":3730,"max":[1.0077329874038696,0.8814290165901184,0.2687792479991913],"min":[-0.9921460747718811,-1,-0.21875],"type":"VEC3"},{"bufferView":1,"componentType":5126,"count":3730,"max":[1,1,1],"min":[-1,-1,-1],"type":"VEC3"},{"bufferView":2,"componentType":5126,"count":3730,"max":[0.984375,0.984375],"min":[0,0],"type":"VEC2"},{"bufferView":3,"componentType":5123,"count":5082,"max":[3729],"min":[0],"type":"SCALAR"}],"materials":[{"pbrMetallicRoughness":{"metallicFactor":0,"roughnessFactor":1,"baseColorTexture":{"index":0}},"alphaMode":"MASK","alphaCutoff":0.05,"doubleSided":true}],"textures":[{"sampler":0,"source":0,"name":"texture"}],"samplers":[{"magFilter":9728,"minFilter":9728,"wrapS":33071,"wrapT":33071}],"images":[{"mimeType":"image/png","uri":"data:image/png;base64,"}],"meshes":[{"primitives":[{"mode":4,"attributes":{"POSITION":0,"NORMAL":1,"TEXCOORD_0":2},"indices":3,"material":0}]}]}