{"asset":{"version":"2.0","generator":"Blockbench 4.12.1 glTF exporter"},"scenes":[{"nodes":[6],"name":"blockbench_export"}],"scene":0,"nodes":[{"translation":[-0.4375,0,0],"name":"cuboid","mesh":0},{"translation":[1.875,-1,0],"name":"cuboid","mesh":1},{"translation":[-2.6875,-1,0],"name":"cuboid","mesh":2},{"translation":[-2.6875,0.9375,0],"name":"cuboid","mesh":3},{"translation":[1.875,0.9375,0],"name":"cuboid","mesh":4},{"translation":[-0.4375,1.9375,0],"name":"cuboid","mesh":5},{"children":[0,1,2,3,4,5]}],"bufferViews":[{"buffer":0,"byteOffset":0,"byteLength":8928,"target":34962,"byteStride":12},{"buffer":0,"byteOffset":8928,"byteLength":8928,"target":34962,"byteStride":12},{"buffer":0,"byteOffset":17856,"byteLength":5952,"target":34962,"byteStride":8},{"buffer":0,"byteOffset":23808,"byteLength":2232,"target":34963},{"buffer":0,"byteOffset":26040,"byteLength":8928,"target":34962,"byteStride":12},{"buffer":0,"byteOffset":34968,"byteLength":8928,"target":34962,"byteStride":12},{"buffer":0,"byteOffset":43896,"byteLength":5952,"target":34962,"byteStride":8},{"buffer":0,"byteOffset":49848,"byteLength":2232,"target":34963},{"buffer":0,"byteOffset":52080,"byteLength":8928,"target":34962,"byteStride":12},{"buffer":0,"byteOffset":61008,"byteLength":8928,"target":34962,"byteStride":12},{"buffer":0,"byteOffset":69936,"byteLength":5952,"target":34962,"byteStride":8},{"buffer":0,"byteOffset":75888,"byteLength":2232,"target":34963},{"buffer":0,"byteOffset":78120,"byteLength":8928,"target":34962,"byteStride":12},{"buffer":0,"byteOffset":87048,"byteLength":8928,"target":34962,"byteStride":12},{"buffer":0,"byteOffset":95976,"byteLength":5952,"target":34962,"byteStride":8},{"buffer":0,"byteOffset":101928,"byteLength":2232,"target":34963},{"buffer":0,"byteOffset":104160,"byteLength":8928,"target":34962,"byteStride":12},{"buffer":0,"byteOffset":113088,"byteLength":8928,"target":34962,"byteStride":12},{"buffer":0,"byteOffset":122016,"byteLength":5952,"target":34962,"byteStride":8},{"buffer":0,"byteOffset":127968,"byteLength":2232,"target":34963},{"buffer":0,"byteOffset":130200,"byteLength":8928,"target":34962,"byteStride":12},{"buffer":0,"byteOffset":139128,"byteLength":8928,"target":34962,"byteStride":12},{"buffer":0,"byteOffset":148056,"byteLength":5952,"target":34962,"byteStride":8},{"buffer":0,"byteOffset":154008,"byteLength":2232,"target":34963}],"buffers":[{"byteLength":156240,"uri":"data:application/octet-stream;base64,"}],"accessors":[{"bufferView":0,"componentType":5126,"count":744,"max":[1.75,1.8767893314361572,1.21875],"min":[-0.8125,-0.125,-1],"type":"VEC3"},{"bufferView":1,"componentType":5126,"count":744,"max":[1,1,1],"min":[-1,-1,-1],"type":"VEC3"},{"bufferView":2,"componentType":5126,"count":744,"max":[1.0078125,1.0007375478744507],"min":[0,0],"type":"VEC2"},{"bufferView":3,"componentType":5123,"count":1116,"max":[743],"min":[0],"type":"SCALAR"},{"bufferView":4,"componentType":5126,"count":744,"max":[1.75,1.8767893314361572,1.21875],"min":[-0.8125,-0.125,-1],"type":"VEC3"},{"bufferView":5,"componentType":5126,"count":744,"max":[1,1,1],"min":[-1,-1,-1],"type":"VEC3"},{"bufferView":6,"componentType":5126,"count":744,"max":[1.0078125,1.0007375478744507],"min":[0,0],"type":"VEC2"},{"bufferView":7,"componentType":5123,"count":1116,"max":[743],"min":[0],"type":"SCALAR"},{"bufferView":8,"componentType":5126,"count":744,"max":[1.75,1.8767893314361572,1.21875],"min":[-0.8125,-0.125,-1],"type":"VEC3"},{"bufferView":9,"componentType":5126,"count":744,"max":[1,1,1],"min":[-1,-1,-1],"type":"VEC3"},{"bufferView":10,"componentType":5126,"count":744,"max":[1.0078125,1.0007375478744507],"min":[0,0],"type":"VEC2"},{"bufferView":11,"componentType":5123,"count":1116,"max":[743],"min":[0],"type":"SCALAR"},{"bufferView":12,"componentType":5126,"count":744,"max":[1.75,1.8767893314361572,1.21875],"min":[-0.8125,-0.125,-1],"type":"VEC3"},{"bufferView":13,"componentType":5126,"count":744,"max":[1,1,1],"min":[-1,-1,-1],"type":"VEC3"},{"bufferView":14,"componentType":5126,"count":744,"max":[1.0078125,1.0007375478744507],"min":[0,0],"type":"VEC2"},{"bufferView":15,"componentType":5123,"count":1116,"max":[743],"min":[0],"type":"SCALAR"},{"bufferView":16,"componentType":5126,"count":744,"max":[1.75,1.8767893314361572,1.21875],"min":[-0.8125,-0.125,-1],"type":"VEC3"},{"bufferView":17,"componentType":5126,"count":744,"max":[1,1,1],"min":[-1,-1,-1],"type":"VEC3"},{"bufferView":18,"componentType":5126,"count":744,"max":[1.0078125,1.0007375478744507],"min":[0,0],"type":"VEC2"},{"bufferView":19,"componentType":5123,"count":1116,"max":[743],"min":[0],"type":"SCALAR"},{"bufferView":20,"componentType":5126,"count":744,"max":[1.75,1.8767893314361572,1.21875],"min":[-0.8125,-0.125,-1],"type":"VEC3"},{"bufferView":21,"componentType":5126,"count":744,"max":[1,1,1],"min":[-1,-1,-1],"type":"VEC3"},{"bufferView":22,"componentType":5126,"count":744,"max":[1.0078125,1.0007375478744507],"min":[0,0],"type":"VEC2"},{"bufferView":23,"componentType":5123,"count":1116,"max":[743],"min":[0],"type":"SCALAR"}],"materials":[{"pbrMetallicRoughness":{"metallicFactor":0,"roughnessFactor":1,"baseColorTexture":{"index":0}},"alphaMode":"MASK","alphaCutoff":0.05,"doubleSided":true}],"textures":[{"sampler":0,"source":0,"name":"concrete.png"}],"samplers":[{"magFilter":9728,"minFilter":9728,"wrapS":33071,"wrapT":33071}],"images":[{"mimeType":"image/png","uri":"data:image/png;base64,"}],"meshes":[{"primitives":[{"mode":4,"attributes":{"POSITION":0,"NORMAL":1,"TEXCOORD_0":2},"indices":3,"material":0}]},{"primitives":[{"mode":4,"attributes":{"POSITION":4,"NORMAL":5,"TEXCOORD_0":6},"indices":7,"material":0}]},{"primitives":[{"mode":4,"attributes":{"POSITION":8,"NORMAL":9,"TEXCOORD_0":10},"indices":11,"material":0}]},{"primitives":[{"mode":4,"attributes":{"POSITION":12,"NORMAL":13,"TEXCOORD_0":14},"indices":15,"material":0}]},{"primitives":[{"mode":4,"attributes":{"POSITION":16,"NORMAL":17,"TEXCOORD_0":18},"indices":19,"material":0}]},{"primitives":[{"mode":4,"attributes":{"POSITION":20,"NORMAL":21,"TEXCOORD_0":22},"indices":23,"material":0}]}]}